<?xml version="1.0" encoding="UTF-8" standalone="no"?>
<svg
   width="308.7612359841165"
   height="304.915625"
   viewBox="0 0 106.00782394174519 104.68749999999999"
   class="css-1j8o68f"
   version="1.1"
   id="svg23"
   sodipodi:docname="logo.svg"
   inkscape:version="1.2.2 (732a01da63, 2022-12-09)"
   xmlns:inkscape="http://www.inkscape.org/namespaces/inkscape"
   xmlns:sodipodi="http://sodipodi.sourceforge.net/DTD/sodipodi-0.dtd"
   xmlns="http://www.w3.org/2000/svg"
   xmlns:svg="http://www.w3.org/2000/svg">
  <sodipodi:namedview
     id="namedview25"
     pagecolor="#ffffff"
     bordercolor="#000000"
     borderopacity="0.25"
     inkscape:showpageshadow="2"
     inkscape:pageopacity="0.0"
     inkscape:pagecheckerboard="0"
     inkscape:deskcolor="#d1d1d1"
     showgrid="false"
     inkscape:zoom="1.9224713"
     inkscape:cx="-15.344832"
     inkscape:cy="107.15375"
     inkscape:window-width="1920"
     inkscape:window-height="1009"
     inkscape:window-x="-8"
     inkscape:window-y="-8"
     inkscape:window-maximized="1"
     inkscape:current-layer="svg23" />
  <defs
     id="SvgjsDefs2684" />
  <rect
     style="fill:#ffffff;stroke-width:0.343333"
     id="rect1739"
     width="66.970963"
     height="54.826897"
     x="18.93046"
     y="25.002495" />
  <path
     style="fill:#5a228b;stroke-width:0.189519;fill-opacity:1"
     d="m 38.345438,102.67378 c -0.08395,-0.13089 -0.195091,-0.87165 -0.246976,-1.64615 -0.07303,-1.090139 -0.168903,-1.444843 -0.424509,-1.570564 -0.181596,-0.08932 -0.478751,-0.23532 -0.660348,-0.324452 -0.206347,-0.101275 -0.352455,-0.42795 -0.38958,-0.871051 -0.049,-0.584792 -0.160596,-0.751926 -0.637035,-0.954058 -0.348834,-0.147991 -0.493452,-0.297557 -0.365105,-0.377595 0.369589,-0.230483 0.235319,-0.757044 -0.589326,-2.311158 -0.922183,-1.737936 -1.538764,-2.176003 -3.065906,-2.178265 -3.678133,-0.0056 -6.631493,-1.732174 -7.374684,-4.311699 -0.319618,-1.109358 -1.281718,-2.510558 -2.394275,-3.487015 -0.649485,-0.570032 -0.783458,-0.613088 -1.509369,-0.485151 -1.037172,0.182807 -1.503388,0.169947 -2.871999,-0.07921 -1.955637,-0.356047 -4.245098,0.08514 -4.245098,0.818043 0,0.390414 -0.862114,0.692471 -1.976448,0.692471 -1.16645,0 -1.7165677,-0.373622 -1.513385,-1.027833 C 10.428137,83.443658 10.41544,83.412974 8.8890839,81.67921 6.4254381,78.880762 6.0290082,78.685731 4.4692853,79.504796 3.8519836,79.828963 3.2913582,80.036985 3.2234513,79.967064 3.1555445,79.897144 3.6031462,79.388441 4.2181221,78.836614 5.3237234,77.844536 5.3335389,77.826659 5.0935558,77.242068 4.7475729,76.399259 4.0288241,75.669622 3.6782814,75.805352 3.2518638,75.97046 3.0902881,75.35862 3.4533952,74.953773 3.621057,74.766838 3.8744617,74.224221 4.0165163,73.747954 4.4769809,72.204154 6.5737697,69.426479 7.7266654,68.83301 8.7530051,68.304693 9.1855246,66.73071 8.6377242,65.517583 8.4599888,65.123979 8.493933,64.845317 8.8263953,63.968709 c 0.2229689,-0.587905 0.4053978,-1.281417 0.4053978,-1.541135 0,-0.889362 -1.1269045,-6.546574 -1.416701,-7.11203 C 7.5123881,54.724901 5.7508265,53.568099 5.2823665,53.652325 5.1336788,53.679051 4.692335,54.16615 4.3016019,54.734749 3.4814276,55.928281 3.1555323,56.159517 2.5203044,55.998648 1.8661061,55.832975 1.9348406,55.199656 2.7144055,54.210205 3.6086535,53.075194 3.7161612,52.594477 3.8173785,49.278262 3.8913015,46.856298 3.9681173,46.260686 4.28387,45.661197 4.4917683,45.266483 4.9198505,44.45114 5.2351642,43.849327 5.5504782,43.247514 5.9088287,42.262338 6.0314991,41.660052 6.351085,40.090946 6.8873503,38.760949 9.0128018,34.266095 11.458724,29.09352 11.59638,28.61587 11.238723,26.542407 c -0.26037,-1.509463 -0.25501,-1.632508 0.108501,-2.490587 0.521157,-1.230207 1.579571,-2.150098 2.923719,-2.541071 0.600962,-0.174802 1.347365,-0.49038 1.658672,-0.701285 0.311307,-0.210903 2.433856,-2.247293 4.716776,-4.525307 2.28292,-2.278015 4.778744,-4.691905 5.546274,-5.364199 1.250974,-1.0957502 1.472562,-1.3984067 2.139434,-2.9221274 1.232754,-2.8167103 1.201339,-2.7095406 0.925178,-3.1557263 -0.243766,-0.3938509 -0.232224,-0.3979127 0.664637,-0.2339164 0.501994,0.091792 2.143793,0.1662478 3.648445,0.1654574 l 2.73573,-0.00144 3.39608,-1.0177681 c 1.867842,-0.5597718 3.916303,-1.2152526 4.55213,-1.4566229 1.26931,-0.4818495 3.770236,-0.8503454 5.824777,-0.8582445 0.726382,-0.0028 1.660303,-0.08509 2.075381,-0.1828812 0.819067,-0.1929719 5.584437,0.3423066 10.942921,1.2291829 3.099024,0.5129152 7.967027,1.8389916 10.077524,2.7451837 2.145958,0.9214197 7.688525,4.2674537 9.737755,5.8786598 4.041477,3.17761 8.01335,6.732262 8.839784,7.911213 1.071929,1.529176 4.380916,8.006046 5.484514,10.735161 0.475153,1.175015 1.212966,3.145362 1.639582,4.37855 0.426621,1.23319 0.942646,2.58483 1.146713,3.003646 0.22216,0.455946 0.47538,1.63992 0.63109,2.950763 0.2427,2.043334 0.32839,2.322526 1.2853,4.18818 1.68254,3.280305 1.70559,3.426317 1.34405,8.509373 -0.43513,6.117367 -0.5875,6.78086 -1.60934,7.007315 -0.54499,0.120778 -0.57312,0.172162 -0.53209,0.97192 0.0343,0.667925 -0.038,0.901892 -0.34593,1.119494 -0.21409,0.151306 -0.38984,0.470495 -0.39058,0.70931 -7.9e-4,0.238816 -0.39533,1.317177 -0.876899,2.396355 -0.481564,1.079183 -0.967376,2.394079 -1.07958,2.921999 -0.112212,0.527918 -0.372027,1.101294 -0.577376,1.274173 -0.20535,0.172878 -0.571943,0.705207 -0.814665,1.182953 -0.242721,0.477746 -0.581487,0.986021 -0.752822,1.129498 -0.171328,0.143474 -0.48508,0.609263 -0.697217,1.035086 -0.45413,0.911572 -2.584965,4.278971 -3.596756,5.684003 -0.654418,0.908777 -0.699157,1.053074 -0.588181,1.897172 l 0.120109,0.913587 -1.109856,1.11855 c -0.885527,0.892462 -1.327656,1.18229 -2.187423,1.433913 -1.004409,0.293968 -2.035503,1.12464 -2.035503,1.639851 0,0.353449 -0.767573,0.937253 -1.232279,0.937253 -0.262682,0 -0.528074,0.132709 -0.589756,0.294911 -0.06171,0.162202 -0.59474,0.540716 -1.184561,0.841134 -0.589828,0.300426 -1.189004,0.687988 -1.331507,0.861236 -0.326377,0.396808 -1.316265,0.90115 -2.601414,1.32539 -1.065169,0.351626 -2.116691,1.115415 -2.116691,1.537497 0,0.38032 -0.277768,0.494694 -1.604716,0.66074 -0.748464,0.09366 -1.858689,0.451454 -2.957081,0.952991 -0.967278,0.441664 -2.346464,1.069914 -3.064862,1.396109 -0.718398,0.326194 -1.757984,0.937652 -2.310198,1.358798 -0.552207,0.421139 -1.177448,0.894213 -1.389422,1.051268 -0.232899,0.17256 -0.424786,0.586881 -0.484926,1.047047 -0.260894,1.996307 -0.480783,2.078554 -1.572066,0.588018 -0.960571,-1.311996 -1.856064,-1.689136 -2.633551,-1.109136 -0.278743,0.207944 -0.789051,0.440625 -1.134019,0.517075 -0.592461,0.131301 -0.621335,0.175564 -0.521104,0.798794 0.286086,1.778815 -1.251564,2.595895 -1.994514,1.059843 -0.236211,-0.488367 -0.320329,-0.518385 -1.305784,-0.465901 -0.877544,0.04672 -1.143974,-0.0189 -1.596635,-0.393536 -0.693495,-0.573894 -1.353859,-0.834817 -2.996051,-1.183806 -1.936534,-0.411547 -4.368375,-0.376939 -5.246234,0.07465 -0.691392,0.355663 -0.706902,0.355663 -0.89555,0 -0.105584,-0.199072 -0.323275,-0.361946 -0.483756,-0.361946 -0.160481,0 -0.652227,-0.298012 -1.092768,-0.662259 -0.878058,-0.725992 -1.949142,-1.241459 -2.579618,-1.241459 -0.344977,0 -0.392184,0.08684 -0.319367,0.587456 0.06841,0.470318 0.0044,0.618516 -0.320645,0.74324 -0.254023,0.09745 -0.492795,0.447779 -0.637624,0.935519 -0.127337,0.428865 -0.318927,0.77973 -0.425745,0.77973 -0.106823,0 -0.167089,0.187527 -0.133929,0.416707 0.04041,0.279343 0.371235,0.577401 1.003644,0.904262 1.218756,0.629905 1.291414,1.059765 0.355752,2.104765 -1.045048,1.16717 -2.11616,1.64282 -2.467166,1.09559 z M 30.928963,66.550731 V 55.889909 h 5.282791 5.282788 v 10.660822 10.660818 h 4.433771 4.433767 V 52.082474 26.953397 h -4.433767 -4.433771 v 9.804148 9.804147 H 36.211754 30.928963 V 36.757545 26.953397 H 26.40086 21.872753 v 25.129077 25.129075 h 4.528107 4.528103 z m 33.647076,5.378003 c 0.06836,-2.905551 0.128256,-8.452507 0.133076,-12.326575 l 0.0088,-7.043755 0.911966,2.189275 c 0.50158,1.204102 2.758642,6.68681 5.015694,12.183794 2.257054,5.496985 4.168089,10.066213 4.246752,10.153839 0.07866,0.08762 1.97801,0.097 4.220784,0.02085 l 4.077763,-0.138476 V 60.27296 c 0,-9.182105 -0.05624,-20.435319 -0.125075,-25.007142 l -0.125083,-8.31241 h -4.025692 -4.025693 l -0.02559,7.948023 c -0.01406,4.371412 -0.07775,10.337593 -0.141503,13.25818 l -0.115918,5.310161 -4.999783,-13.254518 -4.999783,-13.254516 -4.292268,-0.0037 -4.292267,-0.0037 v 25.12908 25.129074 h 4.214761 4.214755 z"
     id="path1535" />
  <path
     style="fill:#440055;fill-opacity:1;stroke-width:0.520164"
     d="m 112.20328,298.96415 c -0.29677,-0.35761 -0.71009,-2.38079 -0.9185,-4.49595 -0.27216,-2.76218 -0.65103,-4.08122 -1.34469,-4.68147 -0.53117,-0.45965 -1.43392,-1.24536 -2.0061,-1.74602 -0.57218,-0.50066 -1.04033,-1.47848 -1.04033,-2.17294 0,-0.70445 -0.53839,-1.68615 -1.21783,-2.22061 -0.80646,-0.63436 -1.23422,-1.53404 -1.26633,-2.66341 -0.0509,-1.78963 -3.0883,-7.8469 -4.93886,-9.84915 -1.313232,-1.42089 -3.918795,-2.20052 -7.401645,-2.21469 -5.919803,-0.0241 -12.539418,-2.55413 -16.306267,-6.23228 -1.918853,-1.87367 -2.639004,-3.09771 -4.924937,-8.37089 -0.73546,-1.69655 -2.531226,-4.2427 -4.318405,-6.1229 l -3.059401,-3.21863 -9.970932,-0.27373 c -10.721867,-0.29435 -12.984604,0.0742 -14.180937,2.30954 -0.993594,1.85654 -5.896826,2.72064 -8.358369,1.47299 -1.183742,-0.59999 -1.285913,-0.91431 -1.138823,-3.50344 l 0.161587,-2.84432 -4.151842,-4.74689 c -6.339958,-7.24861 -8.00443,-8.15867 -11.828269,-6.4672 -3.602106,1.59338 -3.805786,1.33058 -1.098792,-1.41775 1.348173,-1.36875 2.451224,-2.90562 2.451224,-3.41526 0,-2.02791 -2.675998,-5.53969 -4.221283,-5.53969 -1.3468894,0 -1.6482634,-0.84886 -0.779659,-2.19601 0.420254,-0.65178 1.170993,-2.23839 1.668311,-3.5258 0.985882,-2.55215 4.63168,-8.33263 6.561422,-10.40327 0.66656,-0.71523 2.432395,-2.31361 3.924078,-3.55197 3.342975,-2.77525 4.138697,-5.01957 3.225869,-9.09851 -0.528749,-2.3627 -0.465983,-3.15061 0.505873,-6.35023 l 1.109519,-3.65285 -1.338857,-7.26908 c -1.747852,-9.48964 -2.745059,-13.28776 -3.807021,-14.50004 -1.26412,-1.44305 -5.340958,-3.95256 -6.421151,-3.95256 -0.525746,0 -2.093745,1.48121 -3.608681,3.40892 -2.2308796,2.83875 -2.9058785,3.38251 -4.0355969,3.25103 -2.0194634,-0.23504 -1.9745863,-1.72284 0.1447869,-4.80008 2.24596,-3.26103 2.767139,-5.78222 3.212894,-15.54229 l 0.327937,-7.18037 2.559823,-5.23457 c 1.407903,-2.87901 3.01811,-6.94472 3.578238,-9.0349 1.352,-5.04515 2.345389,-7.49677 7.895205,-19.48494 7.754762,-16.751061 8.087783,-17.884643 7.136737,-24.292999 -0.558468,-3.763073 -0.528432,-4.541046 0.254471,-6.591048 1.257115,-3.291711 4.540665,-6.10626 9.181524,-7.870099 4.324014,-1.643416 3.757464,-1.142878 26.775276,-23.655516 L 81.171079,27.3086 83.652968,21.421529 c 1.365035,-3.237889 2.356888,-6.280847 2.204111,-6.762129 -0.255125,-0.803694 0.545969,-0.860008 9.822674,-0.69051 11.360807,0.207579 10.274887,0.418263 29.181527,-5.6616449 7.96641,-2.5617977 11.43515,-3.1789242 23.12532,-4.1142384 6.38388,-0.5107651 10.28581,-0.3133818 20.54648,1.039365 23.55776,3.1058121 39.81037,7.4468153 50.97605,13.6154873 12.82442,7.085072 21.85074,13.383543 33.29048,23.229745 12.89789,11.101225 14.24796,12.759841 21.21532,26.063855 5.39335,10.298458 8.35402,17.024952 13.30677,30.232212 4.31265,11.500349 4.74515,13.001289 6.00199,20.828949 0.5714,3.55876 1.41835,5.96539 4.02728,11.4436 l 3.30371,6.93711 0.17356,5.49744 c 0.20383,6.45631 -1.17655,24.1934 -2.14372,27.54551 -0.54472,1.88793 -1.03672,2.5011 -2.60181,3.24257 -1.76238,0.83493 -1.93007,1.09897 -1.93007,3.03894 0,1.33693 -0.38568,2.61486 -1.04033,3.44712 -0.57218,0.7274 -1.04033,1.6562 -1.04033,2.06398 0,0.40779 -1.03231,3.2619 -2.29403,6.34247 -1.26171,3.08056 -2.64521,6.78361 -3.07444,8.22899 -0.68379,2.30255 -3.05619,6.38899 -6.12778,10.55501 -0.52733,0.71523 -1.70729,2.58782 -2.62213,4.16131 -0.91484,1.5735 -3.96429,6.39212 -6.77657,10.70805 -4.8884,7.5021 -5.11324,7.97203 -5.11324,10.68723 0,2.73003 -0.10581,2.94666 -2.73086,5.5909 -1.83638,1.84982 -4.13768,3.42341 -7.02592,4.80422 -3.58197,1.71246 -4.44557,2.37152 -5.20163,3.96965 -0.50945,1.07683 -1.59018,2.24569 -2.46708,2.66828 -2.78553,1.34235 -6.38937,3.59523 -10.29142,6.4335 -1.4732,1.07156 -4.32473,2.56644 -6.33675,3.32194 -4.08692,1.53461 -7.05185,3.50825 -7.42734,4.94411 -0.23904,0.9141 -2.92377,2.00021 -4.96003,2.00658 -3.10428,0.01 -19.17659,7.32458 -24.60524,11.19839 -3.96182,2.82709 -4.69587,3.84039 -5.17721,7.14669 -0.19835,1.36244 -0.57905,2.61216 -0.84599,2.77714 -0.26695,0.16498 -1.93925,-1.24235 -3.71624,-3.12738 -3.70802,-3.93351 -4.63634,-4.16656 -8.47233,-2.12694 -1.34515,0.71523 -2.76199,1.30041 -3.14851,1.30041 -0.5026,0 -0.70277,0.79192 -0.70277,2.78028 0,2.03289 -0.25572,3.0117 -0.95125,3.64115 -1.43703,1.30049 -2.4938,1.04856 -4.02558,-0.95971 -1.29263,-1.69473 -1.58794,-1.82057 -4.27228,-1.82057 -2.30607,0 -3.36266,-0.30738 -5.27508,-1.53457 -3.40207,-2.18311 -7.72485,-3.2237 -14.60499,-3.51579 -4.55264,-0.19328 -6.52692,-0.064 -8.26308,0.54108 -2.10915,0.73507 -2.38376,0.72484 -3.64115,-0.13556 -7.27382,-4.97737 -8.94428,-5.89711 -10.81744,-5.95604 -1.84845,-0.0582 -1.98758,0.0407 -2.00733,1.42542 -0.0117,0.81835 -0.41883,1.77864 -0.90477,2.13397 -0.48595,0.35533 -1.23359,1.48384 -1.66143,2.50779 -0.42783,1.02396 -1.0155,2.0086 -1.30593,2.18809 -1.17782,0.72794 -0.54577,2.90453 1.10355,3.80025 2.97295,1.61456 4.25168,2.94415 3.88314,4.03755 -0.4807,1.42618 -2.52869,3.64069 -4.77952,5.16815 -2.19589,1.49016 -2.48497,1.54866 -3.22805,0.65322 z M 90.248421,194.0211 v -31.20983 h 15.084749 15.08475 v 31.20983 31.20983 h 13.26418 13.26418 V 151.62775 78.024572 H 133.6821 120.41792 v 28.609008 28.60901 H 105.33317 90.248421 V 106.6248 78.007011 l -13.394218,0.138821 -13.394218,0.138822 -0.133692,72.822936 c -0.07353,40.05261 -0.02237,73.11552 0.113718,73.47314 0.189007,0.49672 3.382235,0.6502 13.52791,0.6502 h 13.2805 z m 97.866259,27.69872 c 0.0415,-1.9311 0.21707,-17.83531 0.39013,-35.34269 l 0.31465,-31.83158 8.2765,20.1279 c 11.75763,28.59381 20.51217,49.61012 20.77506,49.87301 0.36247,0.36246 23.0997,0.1797 24.07223,-0.19349 0.82809,-0.31777 0.86217,-4.77647 0.53973,-70.60293 -0.1893,-38.64507 -0.49439,-71.492635 -0.67799,-72.994608 l -0.33381,-2.73086 h -11.89131 -11.89131 l -0.0664,28.478968 c -0.0365,15.66343 -0.21208,32.73489 -0.39013,37.93656 l -0.32372,9.4576 -14.30029,-37.93657 -14.30029,-37.936558 h -12.61818 -12.61819 v 73.603178 73.60318 h 12.48393 12.48393 z"
     id="path23117"
     transform="scale(0.34333269)" />
  <path
     style="fill:#660080;fill-opacity:1;stroke-width:0.520164"
     d="m 112.41025,298.66279 c -0.14664,-0.23726 -0.52148,-2.02672 -0.83296,-3.97656 -0.6352,-3.97616 -1.1101,-5.09919 -2.59664,-6.14039 -0.56426,-0.39523 -1.40502,-1.63613 -1.86834,-2.75754 -0.46333,-1.12142 -1.12983,-2.39005 -1.48112,-2.81919 -0.35128,-0.42913 -0.93168,-1.83357 -1.28977,-3.12098 -0.85093,-3.0593 -4.32426,-8.90675 -5.835247,-9.8238 -0.653316,-0.39651 -3.861228,-1.03187 -7.128694,-1.41191 -4.530815,-0.52698 -6.739857,-1.06488 -9.307302,-2.26633 -5.476664,-2.56284 -6.969633,-4.06585 -10.217541,-10.28625 -1.750762,-3.35307 -4.034282,-6.80135 -5.689724,-8.59191 l -2.765243,-2.99094 H 53.189454 c -10.885673,0 -12.468607,0.27315 -14.217871,2.45343 -0.866903,1.08051 -1.650628,1.39463 -3.95667,1.58586 -1.697714,0.14079 -3.350895,-0.0159 -4.035867,-0.38246 -1.016339,-0.54393 -1.138482,-0.96297 -0.984886,-3.37889 0.170929,-2.68855 0.10338,-2.84128 -2.68434,-6.06938 -7.084001,-8.20306 -9.432621,-9.62786 -13.244834,-8.03501 -1.082502,0.4523 -2.074876,0.82236 -2.205276,0.82236 -0.130399,0 0.600408,-0.97843 1.624016,-2.17429 1.037515,-1.2121 1.861106,-2.73869 1.861106,-3.4497 0,-1.89957 -1.898343,-4.61397 -3.655136,-5.22639 -0.850576,-0.29651 -1.546502,-0.6465 -1.546502,-0.77776 0,-0.13126 0.695942,-1.78978 1.546537,-3.68559 2.383998,-5.31349 5.861979,-10.32293 9.662957,-13.91787 4.678583,-4.42496 5.092206,-5.33085 4.674679,-10.23815 -0.247272,-2.90626 -0.122838,-4.65789 0.466355,-6.56475 0.44199,-1.43045 0.805681,-3.30304 0.808203,-4.16131 0.0072,-2.45406 -3.441932,-18.66532 -4.341312,-20.40452 -0.917979,-1.77518 -5.329396,-4.82343 -6.980446,-4.82343 -0.685287,0 -2.120755,1.16627 -3.841364,3.12099 -1.845713,2.09683 -3.1359575,3.12098 -3.9318969,3.12098 -1.6009035,0 -1.5171553,-1.10886 0.3291504,-4.35807 2.1344865,-3.75638 2.5497995,-5.74834 3.1040515,-14.88799 l 0.488933,-8.06254 2.347291,-4.94156 c 1.29101,-2.71785 3.095646,-7.28229 4.010302,-10.14319 0.914655,-2.8609 4.308499,-11.07049 7.541875,-18.24352 7.416064,-16.452058 7.720547,-17.471314 7.264071,-24.316503 -0.216434,-3.245593 -0.147663,-5.826339 0.177679,-6.667715 1.068169,-2.762413 3.908798,-5.2791 8.266941,-7.324197 C 47.04157,60.8567 47.552682,60.417048 66.019508,42.458314 82.333021,26.593652 82.231485,26.724141 85.29526,17.68557 l 1.146072,-3.381065 11.136452,-0.304717 c 8.452476,-0.231277 11.825956,-0.522256 13.997356,-1.207342 1.57349,-0.496444 5.66978,-1.805086 9.10286,-2.9080935 10.00319,-3.2139038 14.03191,-4.1156597 22.34474,-5.0014747 9.33208,-0.9944238 15.95844,-0.7459408 28.72203,1.0770511 17.56247,2.5084018 31.62313,5.9245721 41.06073,9.9760861 12.15112,5.216414 26.92842,15.153895 42.07477,28.294555 10.57313,9.173035 13.56163,13.218485 21.29851,28.831207 7.4638,15.061661 14.64391,34.078913 16.41999,43.489993 1.24092,6.57545 2.483,10.18516 5.71544,16.61017 l 2.22442,4.42139 -0.30303,11.18352 c -0.30915,11.40905 -1.00133,19.23976 -1.96257,22.20276 -0.31726,0.97793 -1.23973,2.07071 -2.25236,2.66818 -1.37348,0.81037 -1.78591,1.45517 -2.07096,3.23776 -0.19576,1.22422 -0.69478,2.83243 -1.10894,3.57378 -0.74124,1.32687 -1.58723,3.49525 -5.40995,13.86651 -1.23166,3.34155 -3.25814,7.29418 -5.60037,10.92344 -6.25643,9.69429 -14.54103,22.80159 -15.10173,23.89288 -0.29399,0.57218 -0.69302,2.34847 -0.88675,3.94731 -0.31162,2.5719 -0.63393,3.18315 -2.79606,5.30267 -1.34412,1.31763 -4.31643,3.42547 -6.60515,4.68409 -2.72177,1.49677 -4.61117,2.9453 -5.46172,4.18729 -0.73231,1.06933 -2.77747,2.76166 -4.68147,3.87383 -1.85959,1.08622 -4.86661,2.98424 -6.68227,4.2178 -1.81566,1.23357 -5.47154,3.25017 -8.12418,4.48135 -2.94686,1.36772 -5.61362,3.03707 -6.85546,4.29139 -1.58617,1.6021 -2.58039,2.13506 -4.5276,2.42706 -6.40081,0.95987 -22.47587,8.66774 -27.4512,13.16265 -1.28618,1.16199 -2.21704,2.59031 -2.58655,3.96884 -1.23578,4.61032 -0.98724,4.56348 -4.79792,0.90428 -3.24784,-3.11873 -3.56447,-3.29605 -5.413,-3.03137 -1.07985,0.15461 -3.04472,0.76885 -4.36638,1.36497 -2.31402,1.04371 -2.4164,1.18472 -2.7643,3.80734 -0.58224,4.3891 -2.09755,5.22228 -4.65083,2.55723 -1.10572,-1.15412 -2.07866,-1.5689 -4.28969,-1.82876 -1.5728,-0.18485 -4.28005,-1.05313 -6.01612,-1.92949 -1.73608,-0.87637 -4.70653,-1.92195 -6.60102,-2.32351 -4.13473,-0.87642 -13.81517,-0.97743 -16.13601,-0.16838 -1.54269,0.53778 -1.91834,0.41014 -5.18418,-1.7615 -7.23537,-4.8112 -10.53971,-5.71372 -10.90899,-2.97961 -0.0966,0.71522 -0.58437,1.76856 -1.08393,2.34074 -0.49957,0.57218 -1.54139,2.15072 -2.31517,3.50787 -1.67569,2.93901 -1.41963,3.75174 1.88027,5.96798 1.21389,0.81525 2.28442,1.88393 2.37896,2.37483 0.2088,1.08422 -1.27036,3.03999 -3.84907,5.08929 -1.93853,1.54055 -3.054,1.88515 -3.54268,1.09444 z M 90.248421,194.0211 v -31.20983 h 15.084749 15.08475 v 31.20983 31.20983 h 13.26418 13.26418 V 151.62775 78.024572 H 133.6821 120.41792 v 28.609008 28.60901 H 105.33317 90.248421 V 106.63358 78.024572 H 76.724162 63.199903 v 73.256398 c 0,40.29103 0.156049,73.41246 0.346778,73.60318 0.190723,0.19073 6.27664,0.34678 13.524259,0.34678 h 13.177481 z m 97.995229,30.38704 c 0.17365,-0.45253 0.34745,-10.34215 0.38622,-21.97692 0.0388,-11.63477 0.21433,-26.72381 0.39013,-33.5312 l 0.31963,-12.37706 12.96019,31.36304 c 7.12811,17.24968 13.50554,32.59617 14.17207,34.10333 l 1.21188,2.74028 12.35628,-0.13946 12.35629,-0.13947 -0.0354,-71.26244 c -0.0195,-39.19434 -0.20562,-72.140216 -0.4137,-73.213054 l -0.37832,-1.950614 h -11.85928 -11.85929 l -0.33909,7.412334 c -0.1865,4.076784 -0.3631,19.467134 -0.39244,34.200774 -0.0293,14.73364 -0.20575,28.01509 -0.39203,29.51434 l -0.33867,2.72591 -13.85556,-36.79664 -13.85555,-36.796636 -12.80284,-0.139128 -12.80284,-0.139129 v 73.612263 73.61227 h 12.42827 c 10.85312,0 12.4683,-0.10428 12.74402,-0.82279 z"
     id="path23188"
     transform="scale(0.34333269)" />
</svg>
